HIERARCHY
ROOT Hips
{
	OFFSET 0.000000 71.427986 0.000000
	CHANNELS 6 Xposition Yposition Zposition Xrotation Yrotation Zrotation
	JOINT Pelvis
	{
		OFFSET 0.000000 0.000000 0.000000
		CHANNELS 3 Xrotation Yrotation Zrotation
		JOINT LeftUpLeg
		{
			OFFSET 6.797100 -2.508499 -1.318700
			CHANNELS 3 Xrotation Yrotation Zrotation
			JOINT LeftLeg
			{
				OFFSET 0.069008 -29.241863 0.690200
				CHANNELS 3 Xrotation Yrotation Zrotation
				JOINT LeftFoot
				{
					OFFSET -0.069008 -29.568123 -0.266800
					CHANNELS 3 Xrotation Yrotation Zrotation
					JOINT LeftToeBase
					{
						OFFSET 3.145500 -8.631000 16.059900
						CHANNELS 3 Xrotation Yrotation Zrotation
						End Site
						{
							OFFSET 0.000000 18.501587 0.000000
						}
					}
				}
			}
			JOINT Left_ShortSleeve
			{
				OFFSET 0.265923 -10.480953 1.153800
				CHANNELS 3 Xrotation Yrotation Zrotation
				End Site
				{
					OFFSET 1.725763 19.823879 0.000000
				}
			}
		}
		JOINT RightUpLeg
		{
			OFFSET -6.797100 -2.508499 -1.318700
			CHANNELS 3 Xrotation Yrotation Zrotation
			JOINT RightLeg
			{
				OFFSET -0.082453 -29.241932 0.688000
				CHANNELS 3 Xrotation Yrotation Zrotation
				JOINT RightFoot
				{
					OFFSET 0.082453 -29.568058 -0.264600
					CHANNELS 3 Xrotation Yrotation Zrotation
					JOINT RightToeBase
					{
						OFFSET -3.115300 -8.682800 16.113400
						CHANNELS 3 Xrotation Yrotation Zrotation
						End Site
						{
							OFFSET 0.000000 18.567114 0.000000
						}
					}
				}
			}
			JOINT Right_ShortSleeve
			{
				OFFSET -0.265923 -10.480953 1.153800
				CHANNELS 3 Xrotation Yrotation Zrotation
				End Site
				{
					OFFSET -1.725766 19.823910 0.000000
				}
			}
		}
	}
	JOINT Spine
	{
		OFFSET 0.000000 13.368103 0.470500
		CHANNELS 3 Xrotation Yrotation Zrotation
		JOINT Spine1
		{
			OFFSET 0.147000 13.837402 0.538800
			CHANNELS 3 Xrotation Yrotation Zrotation
			JOINT Spine2
			{
				OFFSET 0.168000 16.242897 -1.435500
				CHANNELS 3 Xrotation Yrotation Zrotation
				JOINT Neck
				{
					OFFSET 0.217200 18.631500 -1.679100
					CHANNELS 3 Xrotation Yrotation Zrotation
					JOINT Head
					{
						OFFSET 0.000000 6.599396 1.385900
						CHANNELS 3 Xrotation Yrotation Zrotation
						JOINT Hat
						{
							OFFSET -0.532200 27.220596 -10.096100
							CHANNELS 3 Xrotation Yrotation Zrotation
							End Site
							{
								OFFSET 0.000000 22.029861 0.000000
							}
						}
						JOINT HairD
						{
							OFFSET -10.777400 17.437393 -1.325900
							CHANNELS 3 Xrotation Yrotation Zrotation
							JOINT HairD1
							{
								OFFSET -3.290299 -11.051193 1.062200
								CHANNELS 3 Xrotation Yrotation Zrotation
								End Site
								{
									OFFSET 0.000000 11.579437 0.000000
								}
							}
						}
						JOINT HairB
						{
							OFFSET -10.777400 17.437393 1.467900
							CHANNELS 3 Xrotation Yrotation Zrotation
							JOINT HairB1
							{
								OFFSET -1.561200 -12.956299 3.590200
								CHANNELS 3 Xrotation Yrotation Zrotation
								End Site
								{
									OFFSET 0.000000 13.534866 0.000000
								}
							}
						}
						JOINT HairA
						{
							OFFSET 9.713100 17.437393 1.467900
							CHANNELS 3 Xrotation Yrotation Zrotation
							JOINT HairA1
							{
								OFFSET 1.561200 -12.956299 3.590200
								CHANNELS 3 Xrotation Yrotation Zrotation
								End Site
								{
									OFFSET 0.000000 13.534866 0.000000
								}
							}
						}
						JOINT HairC
						{
							OFFSET 9.713100 17.437393 -1.325900
							CHANNELS 3 Xrotation Yrotation Zrotation
							JOINT HairC1
							{
								OFFSET 3.290300 -11.051193 1.062200
								CHANNELS 3 Xrotation Yrotation Zrotation
								End Site
								{
									OFFSET 0.000000 11.579437 0.000000
								}
							}
						}
					}
				}
				JOINT LeftShoulder
				{
					OFFSET 5.101800 15.108002 -2.763700
					CHANNELS 3 Xrotation Yrotation Zrotation
					JOINT LeftArm
					{
						OFFSET 9.825497 2.506317 -1.597400
						CHANNELS 3 Xrotation Yrotation Zrotation
						JOINT LeftForeArm
						{
							OFFSET 21.966244 0.000000 0.000000
							CHANNELS 3 Xrotation Yrotation Zrotation
							JOINT LeftHand
							{
								OFFSET 33.879036 0.000000 0.000000
								CHANNELS 3 Xrotation Yrotation Zrotation
								JOINT LeftHandThumb1
								{
									OFFSET 6.715286 -2.359680 3.363841
									CHANNELS 3 Xrotation Yrotation Zrotation
									JOINT LeftHandThumb2
									{
										OFFSET 2.507072 -1.447464 1.447461
										CHANNELS 3 Xrotation Yrotation Zrotation
										JOINT LeftHandThumb3
										{
											OFFSET 2.898338 -1.673355 1.673357
											CHANNELS 3 Xrotation Yrotation Zrotation
											End Site
											{
												OFFSET -0.295959 3.727692 -0.131651
											}
										}
									}
								}
								JOINT LeftHandIndex1
								{
									OFFSET 14.190811 -0.254547 3.840278
									CHANNELS 3 Xrotation Yrotation Zrotation
									JOINT LeftHandIndex2
									{
										OFFSET 3.551727 0.000000 -0.000000
										CHANNELS 3 Xrotation Yrotation Zrotation
										JOINT LeftHandIndex3
										{
											OFFSET 2.894196 0.000000 0.000000
											CHANNELS 3 Xrotation Yrotation Zrotation
											End Site
											{
												OFFSET -1.000603 2.690872 0.366626
											}
										}
									}
								}
								JOINT LeftHandMiddle1
								{
									OFFSET 13.776489 0.000000 0.000000
									CHANNELS 3 Xrotation Yrotation Zrotation
									JOINT LeftHandMiddle2
									{
										OFFSET 3.438232 0.000000 0.000000
										CHANNELS 3 Xrotation Yrotation Zrotation
										JOINT LeftHandMiddle3
										{
											OFFSET 3.691551 0.000000 0.000000
											CHANNELS 3 Xrotation Yrotation Zrotation
											End Site
											{
												OFFSET -1.082298 3.499527 0.457670
											}
										}
									}
								}
								JOINT LeftHandRing1
								{
									OFFSET 13.966164 -0.268127 -3.067488
									CHANNELS 3 Xrotation Yrotation Zrotation
									JOINT LeftHandRing2
									{
										OFFSET 3.162567 0.000000 0.000000
										CHANNELS 3 Xrotation Yrotation Zrotation
										JOINT LeftHandRing3
										{
											OFFSET 3.324348 0.000000 0.000000
											CHANNELS 3 Xrotation Yrotation Zrotation
											End Site
											{
												OFFSET -0.861900 3.184998 0.405154
											}
										}
									}
								}
								JOINT LeftHandPinky1
								{
									OFFSET 13.131393 -0.168503 -5.746925
									CHANNELS 3 Xrotation Yrotation Zrotation
									JOINT LeftHandPinky2
									{
										OFFSET 2.849182 0.000000 0.000000
										CHANNELS 3 Xrotation Yrotation Zrotation
										JOINT LeftHandPinky3
										{
											OFFSET 2.805038 0.000000 0.000000
											CHANNELS 3 Xrotation Yrotation Zrotation
											End Site
											{
												OFFSET -0.882500 2.642609 0.325652
											}
										}
									}
								}
							}
							JOINT Left_Sleeve
							{
								OFFSET 6.592125 -0.646545 0.805568
								CHANNELS 3 Xrotation Yrotation Zrotation
								End Site
								{
									OFFSET -0.000179 20.275787 -0.000000
								}
							}
						}
					}
				}
				JOINT RightShoulder
				{
					OFFSET -5.731700 15.108002 -2.763700
					CHANNELS 3 Xrotation Yrotation Zrotation
					JOINT RightArm
					{
						OFFSET -9.825497 2.506317 -1.597400
						CHANNELS 3 Xrotation Yrotation Zrotation
						JOINT RightForeArm
						{
							OFFSET -21.966242 0.000000 0.000000
							CHANNELS 3 Xrotation Yrotation Zrotation
							JOINT RightHand
							{
								OFFSET -33.879032 0.000000 0.000000
								CHANNELS 3 Xrotation Yrotation Zrotation
								JOINT RightHandThumb1
								{
									OFFSET -6.715286 -2.359680 3.363841
									CHANNELS 3 Xrotation Yrotation Zrotation
									JOINT RightHandThumb2
									{
										OFFSET -2.507072 -1.447464 1.447461
										CHANNELS 3 Xrotation Yrotation Zrotation
										JOINT RightHandThumb3
										{
											OFFSET -2.898338 -1.673355 1.673357
											CHANNELS 3 Xrotation Yrotation Zrotation
											End Site
											{
												OFFSET 0.295959 3.727692 -0.131651
											}
										}
									}
								}
								JOINT RightHandIndex1
								{
									OFFSET -14.190811 -0.254547 3.840278
									CHANNELS 3 Xrotation Yrotation Zrotation
									JOINT RightHandIndex2
									{
										OFFSET -3.551727 0.000000 -0.000000
										CHANNELS 3 Xrotation Yrotation Zrotation
										JOINT RightHandIndex3
										{
											OFFSET -2.894196 0.000000 0.000000
											CHANNELS 3 Xrotation Yrotation Zrotation
											End Site
											{
												OFFSET 1.000603 2.690872 0.366626
											}
										}
									}
								}
								JOINT RightHandMiddle1
								{
									OFFSET -13.776489 0.000000 0.000000
									CHANNELS 3 Xrotation Yrotation Zrotation
									JOINT RightHandMiddle2
									{
										OFFSET -3.438232 0.000000 0.000000
										CHANNELS 3 Xrotation Yrotation Zrotation
										JOINT RightHandMiddle3
										{
											OFFSET -3.691551 0.000000 0.000000
											CHANNELS 3 Xrotation Yrotation Zrotation
											End Site
											{
												OFFSET 1.082298 3.499527 0.457670
											}
										}
									}
								}
								JOINT RightHandRing1
								{
									OFFSET -13.966164 -0.268127 -3.067488
									CHANNELS 3 Xrotation Yrotation Zrotation
									JOINT RightHandRing2
									{
										OFFSET -3.162567 0.000000 0.000000
										CHANNELS 3 Xrotation Yrotation Zrotation
										JOINT RightHandRing3
										{
											OFFSET -3.324348 0.000000 0.000000
											CHANNELS 3 Xrotation Yrotation Zrotation
											End Site
											{
												OFFSET 0.861900 3.184998 0.405154
											}
										}
									}
								}
								JOINT RightHandPinky1
								{
									OFFSET -13.131393 -0.168503 -5.746925
									CHANNELS 3 Xrotation Yrotation Zrotation
									JOINT RightHandPinky2
									{
										OFFSET -2.849182 0.000000 0.000000
										CHANNELS 3 Xrotation Yrotation Zrotation
										JOINT RightHandPinky3
										{
											OFFSET -2.805038 0.000000 0.000000
											CHANNELS 3 Xrotation Yrotation Zrotation
											End Site
											{
												OFFSET 0.882500 2.642609 0.325652
											}
										}
									}
								}
							}
							JOINT Right_Sleeve
							{
								OFFSET -6.592125 -0.646545 0.805568
								CHANNELS 3 Xrotation Yrotation Zrotation
								End Site
								{
									OFFSET 0.000179 20.275787 -0.000000
								}
							}
						}
					}
				}
				JOINT Bind_Right_JacketString
				{
					OFFSET -3.534800 11.969597 7.200700
					CHANNELS 3 Xrotation Yrotation Zrotation
					JOINT Bind_Right_JacketString1
					{
						OFFSET -0.319900 -6.102600 2.794100
						CHANNELS 3 Xrotation Yrotation Zrotation
						End Site
						{
							OFFSET 0.000000 6.719452 0.000000
						}
					}
				}
				JOINT Bind_Left_JacketString
				{
					OFFSET 2.904800 11.969597 7.200700
					CHANNELS 3 Xrotation Yrotation Zrotation
					JOINT Bind_Left_JacketString1
					{
						OFFSET 0.364800 -5.904503 3.186800
						CHANNELS 3 Xrotation Yrotation Zrotation
						End Site
						{
							OFFSET 0.000000 6.719513 0.000000
						}
					}
				}
				JOINT HairE
				{
					OFFSET 5.915200 17.612701 -11.592200
					CHANNELS 3 Xrotation Yrotation Zrotation
					JOINT HairE1
					{
						OFFSET 0.289200 -7.171898 -1.284500
						CHANNELS 3 Xrotation Yrotation Zrotation
						End Site
						{
							OFFSET 0.000000 7.291756 0.000000
						}
					}
				}
				JOINT HairF
				{
					OFFSET -0.864800 17.612701 -11.592200
					CHANNELS 3 Xrotation Yrotation Zrotation
					JOINT HairF1
					{
						OFFSET 0.000000 -14.087097 -2.127501
						CHANNELS 3 Xrotation Yrotation Zrotation
						End Site
						{
							OFFSET 0.000000 14.246841 0.000000
						}
					}
				}
				JOINT HairG
				{
					OFFSET -8.087700 17.612701 -11.592200
					CHANNELS 3 Xrotation Yrotation Zrotation
					JOINT HairG1
					{
						OFFSET -0.293600 -6.081398 -0.910100
						CHANNELS 3 Xrotation Yrotation Zrotation
						End Site
						{
							OFFSET 0.000000 6.156120 0.000000
						}
					}
				}
			}
		}
	}
	JOINT Pouch
	{
		OFFSET 0.000000 4.394501 10.847300
		CHANNELS 3 Xrotation Yrotation Zrotation
		End Site
		{
			OFFSET 0.000000 21.880577 0.000000
		}
	}
	JOINT Bag
	{
		OFFSET -13.229000 4.813004 -0.593300
		CHANNELS 3 Xrotation Yrotation Zrotation
		End Site
		{
			OFFSET 0.000000 21.880577 0.000000
		}
	}
	JOINT OccupyGuyFacialAnim_Joint
	{
		OFFSET 1.000000 -70.206398 -1.655000
		CHANNELS 3 Xrotation Yrotation Zrotation
		End Site
		{
			OFFSET 0.000000 21.880577 0.000000
		}
	}
}
MOTION
Frames: 4
Frame Time: 0.016667
-1.847302 69.770126 3.388353 -6.527210 7.438253 -0.693968 -0.000000 -0.000001 -0.000000 -13.464384 16.130434 11.424526 24.509545 0.819436 4.710657 -7.217628 -11.816921 -10.658962 -0.000000 -0.000001 -0.000000 -0.000003 -0.000001 -0.000001 3.012311 -9.993716 6.091765 19.708589 -10.073715 -6.843982 -15.477706 -15.931210 4.396346 -0.000000 0.000000 0.000000 0.000001 0.000000 -0.000000 2.720345 1.591462 2.695564 2.229757 0.462799 2.709335 1.815967 0.462784 2.663380 12.069589 -2.397798 -0.979290 1.367185 -8.878460 -6.544920 0.000000 0.000000 0.000000 0.000000 0.000000 0.000000 0.000000 0.000000 0.000000 0.000000 0.000000 0.000000 0.000000 0.000000 -0.000000 0.000000 0.000000 0.000000 0.000000 0.000000 -0.000000 0.000000 0.000000 0.000000 0.000000 0.000000 0.000000 0.980236 -16.729753 -12.817466 1.380168 -1.285202 -71.138688 -0.000002 -0.000001 -0.000008 -34.595526 -2.769044 -5.684804 -0.945036 2.085476 4.986317 11.826386 25.404984 17.117656 0.000001 0.000004 0.000001 0.084273 -0.924059 -8.185771 0.267779 1.752616 -17.372894 0.000002 0.000002 -0.000001 -0.073343 2.742587 -16.488396 0.269690 1.758706 -17.435306 -0.000002 0.000000 0.000002 0.084986 3.528567 -21.560619 0.386263 2.093841 -20.901977 0.000001 0.000004 -0.000000 0.961160 5.610184 -27.583155 0.269777 1.758980 -17.437961 0.000002 -0.000001 0.000001 -0.000001 0.000000 0.000000 0.966137 8.437339 16.887346 28.204744 8.686325 58.059763 -0.000004 3.688139 -0.000027 -18.173154 -1.917477 9.747780 -22.530612 4.903201 4.908382 9.518500 -27.760667 -21.071062 0.000001 -0.000001 0.000002 1.062304 -0.350885 19.899449 1.041861 -2.937710 39.047010 0.000000 0.000000 -0.000003 0.380993 -4.016470 23.477877 1.260461 -3.188025 43.136538 0.000003 0.000001 0.000001 -0.717278 -1.494722 23.600431 0.643375 -2.363855 30.447108 -0.000003 0.000000 0.000002 1.085914 -5.686138 22.733445 0.336831 -1.740586 21.902870 0.000002 0.000001 0.000001 -0.000001 -0.000001 0.000000 0.000000 -0.000001 0.000000 -0.000000 -0.000000 0.000000 0.000000 -0.000001 -0.000000 0.000000 -0.000001 -0.000000 0.000000 -0.000001 0.000000 -0.000000 -0.000000 0.000000 0.000000 -0.000001 -0.000000 0.000000 -0.000001 -0.000000 0.000000 -0.000001 0.000000 -0.000000 -0.000000 0.000000 -0.000000 -0.000001 -0.000000 -0.000000 -0.000001 -0.000000 -0.000000 -0.000001 -0.000000 
-1.813061 69.806129 3.366494 -6.289608 6.902413 -0.769417 -0.000000 -0.000000 -0.000000 -13.429709 16.154260 11.396185 24.253283 0.661320 4.636445 -7.104376 -11.152306 -10.595438 0.000000 0.000001 -0.000000 -0.000001 -0.000002 -0.000001 2.820490 -10.003808 5.946096 19.477044 -10.076973 -6.761564 -15.305452 -15.337442 4.417086 -0.000000 0.000000 0.000000 -0.000000 0.000000 -0.000001 2.696161 1.566543 2.676547 2.274833 0.425906 2.707982 1.839811 0.425762 2.655626 11.829166 -2.244497 -0.934816 1.105651 -8.174214 -6.247968 -0.000000 0.000000 -0.000000 -0.000000 0.000000 -0.000000 -0.000000 0.000000 -0.000000 -0.000000 0.000000 -0.000000 -0.000000 -0.000000 -0.000000 -0.000000 0.000000 -0.000000 -0.000000 -0.000000 -0.000000 -0.000000 0.000000 -0.000000 -0.000000 0.000000 -0.000000 0.974910 -16.800881 -12.868814 1.435871 -0.692809 -71.334291 -0.000000 -0.000005 -0.000016 -33.995590 -2.404737 -5.539996 -0.740814 2.177755 4.903585 11.791460 25.381041 17.236254 0.000002 -0.000000 -0.000001 0.101978 -0.894339 -8.243456 0.267742 1.752487 -17.371609 0.000003 0.000002 -0.000001 -0.055502 2.807224 -16.539173 0.269560 1.758275 -17.430925 0.000002 0.000001 -0.000001 0.092932 3.552162 -21.630318 0.386229 2.093769 -20.901236 0.000002 -0.000000 -0.000001 0.984304 5.638672 -27.641091 0.269930 1.759482 -17.443115 -0.000001 -0.000001 -0.000004 -0.000000 0.000000 -0.000000 0.974203 8.465968 16.811913 28.086911 7.872544 58.190432 -0.000002 3.162845 0.000003 -16.303848 -3.021910 9.938315 -22.319986 4.616059 2.964486 9.813051 -27.713935 -20.187905 0.000000 0.000003 0.000002 1.148888 -0.266917 17.459128 0.984714 -2.865922 37.918239 0.000003 0.000002 0.000002 0.390234 -4.036153 21.065227 1.179159 -3.099103 41.653902 0.000000 0.000003 -0.000002 -0.617044 -1.495108 21.700925 0.595697 -2.280874 29.270499 0.000001 -0.000000 0.000001 1.015401 -5.750884 19.977499 0.318389 -1.694006 21.287447 0.000002 0.000004 0.000001 0.000001 -0.000001 -0.000001 -0.000000 0.000000 -0.000000 -0.000000 0.000000 0.000000 -0.000000 0.000000 -0.000000 -0.000000 0.000000 -0.000000 -0.000000 0.000000 -0.000000 -0.000000 0.000000 0.000000 -0.000000 0.000000 -0.000000 -0.000000 0.000000 -0.000000 -0.000000 0.000000 -0.000000 -0.000000 0.000000 0.000000 -0.000000 -0.000000 -0.000000 -0.000000 -0.000000 -0.000000 -0.000000 -0.000000 -0.000000 
-1.783851 69.840256 3.337594 -6.052190 6.323946 -0.861591 0.000000 -0.000000 0.000000 -13.408564 16.175082 11.387054 24.014576 0.488049 4.573740 -6.994848 -10.436626 -10.532612 0.000000 -0.000002 0.000000 -0.000000 0.000002 0.000000 2.614126 -10.009552 5.810840 19.256738 -10.081413 -6.665474 -15.132790 -14.707008 4.427034 -0.000000 -0.000000 -0.000000 -0.000000 -0.000000 -0.000000 2.675918 1.550564 2.662186 2.323627 0.402816 2.709165 1.868222 0.402405 2.651737 11.576146 -2.092929 -0.883111 0.830127 -7.486981 -5.921343 0.000000 -0.000000 0.000000 0.000000 -0.000000 0.000000 0.000000 -0.000000 0.000000 0.000000 -0.000000 0.000000 0.000000 -0.000000 0.000000 0.000000 -0.000000 0.000000 0.000000 -0.000000 0.000000 0.000000 -0.000000 0.000000 0.000000 -0.000000 0.000000 0.973021 -16.881873 -12.893318 1.489841 -0.193287 -71.539121 0.000001 0.000001 -0.000003 -33.441405 -2.085279 -5.380659 -0.610937 2.223745 4.844135 11.771042 25.366862 17.305744 0.000003 0.000002 0.000005 0.109642 -0.882554 -8.256123 0.267703 1.752362 -17.370336 -0.000000 -0.000002 0.000001 -0.045308 2.842774 -16.552357 0.269406 1.757777 -17.425706 -0.000002 -0.000000 0.000002 0.096608 3.562960 -21.660803 0.386220 2.093744 -20.900959 0.000003 0.000001 -0.000001 0.994171 5.653274 -27.663463 0.269993 1.759662 -17.445020 0.000001 -0.000002 -0.000001 -0.000001 0.000000 0.000000 0.974405 8.574770 16.795623 27.644530 6.868321 58.342130 -0.000010 2.537487 -0.000012 -14.582058 -4.211707 10.110750 -21.901206 4.412108 1.458879 9.977239 -27.585616 -19.715626 0.000000 0.000001 0.000003 1.225532 -0.253454 15.752091 0.931935 -2.796944 36.850028 -0.000001 0.000001 -0.000005 0.391778 -4.052736 19.475856 1.103353 -3.011859 40.232048 0.000002 0.000003 0.000001 -0.553186 -1.507917 20.499315 0.554138 -2.205154 28.208627 0.000000 -0.000003 -0.000001 0.940690 -5.715207 18.308474 0.302352 -1.652253 20.737774 0.000000 -0.000004 0.000002 0.000000 -0.000001 0.000001 -0.000000 -0.000000 -0.000000 -0.000000 -0.000000 0.000000 -0.000000 -0.000000 -0.000000 -0.000000 -0.000000 -0.000000 -0.000000 -0.000000 -0.000000 -0.000000 -0.000000 -0.000000 -0.000000 -0.000000 -0.000000 -0.000000 -0.000000 -0.000000 -0.000000 -0.000000 -0.000000 -0.000000 -0.000000 -0.000000 0.000000 -0.000000 0.000000 0.000000 -0.000000 0.000000 0.000000 -0.000000 0.000000 
-1.759963 69.871613 3.302602 -5.818073 5.714435 -0.971069 -0.000000 0.000000 0.000000 -13.405957 16.194273 11.401357 23.801930 0.305380 4.523594 -6.895044 -9.689972 -10.473128 0.000000 0.000000 0.000000 0.000002 0.000001 0.000000 2.397156 -10.009071 5.691192 19.050854 -10.087232 -6.555945 -14.962807 -14.053305 4.424986 -0.000000 0.000000 -0.000000 -0.000000 0.000000 -0.000000 2.659069 1.540570 2.653481 2.374961 0.388696 2.715268 1.900021 0.387847 2.652639 11.317118 -1.943499 -0.825330 0.529281 -6.811789 -5.583147 0.000001 -0.000000 0.000000 0.000001 -0.000000 0.000000 0.000001 -0.000000 0.000000 0.000001 -0.000000 0.000000 0.000001 0.000000 0.000000 0.000001 -0.000000 0.000000 0.000001 0.000000 0.000000 0.000001 -0.000000 0.000000 0.000001 -0.000000 0.000000 0.974774 -16.968720 -12.889546 1.560689 0.185204 -71.747804 -0.000001 -0.000001 -0.000006 -32.970600 -1.827787 -5.223744 -0.552298 2.228800 4.808847 11.764095 25.361978 17.329353 -0.000002 0.000001 0.000001 0.108345 -0.885830 -8.232168 0.267667 1.752250 -17.369226 0.000002 0.000003 0.000000 -0.041762 2.853404 -16.534396 0.269273 1.757365 -17.421555 0.000003 0.000000 0.000002 0.096945 3.563552 -21.655992 0.386234 2.093789 -20.901345 0.000000 0.000002 -0.000001 0.994150 5.654189 -27.655617 0.269984 1.759628 -17.444633 0.000001 -0.000001 -0.000001 -0.000000 -0.000000 -0.000002 0.968009 8.730540 16.828626 26.972492 5.818286 58.456126 -0.000003 1.888799 -0.000004 -13.024997 -5.397801 10.195395 -21.244161 4.286156 0.432280 10.018533 -27.381892 -19.635730 0.000001 0.000002 0.000000 1.298130 -0.326188 14.800262 0.883088 -2.730627 35.836910 -0.000001 0.000000 -0.000003 0.397412 -4.079450 18.748813 1.034161 -2.928219 38.896493 0.000000 -0.000001 0.000001 -0.516329 -1.548208 20.026342 0.518668 -2.137749 27.272457 0.000002 0.000004 -0.000001 0.884379 -5.600509 17.801947 0.288134 -1.614262 20.239363 -0.000001 0.000001 0.000001 0.000001 0.000000 0.000000 -0.000000 0.000000 -0.000000 0.000000 0.000000 -0.000000 -0.000000 0.000000 -0.000000 -0.000000 0.000000 -0.000000 -0.000000 0.000000 -0.000000 0.000000 0.000000 -0.000000 -0.000000 0.000000 -0.000000 -0.000000 0.000000 -0.000000 -0.000000 0.000000 -0.000000 0.000000 0.000000 -0.000000 -0.000000 0.000000 0.000000 -0.000000 0.000000 0.000000 -0.000000 0.000000 0.000000 
